<?xml version="1.0" standalone="no"?>
<!DOCTYPE svg PUBLIC "-//W3C//DTD SVG 20010904//EN"
 "http://www.w3.org/TR/2001/REC-SVG-20010904/DTD/svg10.dtd">
<svg version="1.0" xmlns="http://www.w3.org/2000/svg"
 width="315.000000pt" height="315.000000pt" viewBox="0 0 315.000000 315.000000"
 preserveAspectRatio="xMidYMid meet">
<metadata>
Created by potrace 1.11, written by Peter Selinger 2001-2013
</metadata>
<g transform="translate(0.000000,315.000000) scale(0.100000,-0.100000)"
fill="#000000" stroke="none">
<path d="M1475 3115 c-28 -12 -112 -59 -189 -104 -76 -44 -140 -81 -141 -81
-2 0 -50 -28 -107 -61 -57 -34 -123 -73 -148 -87 -25 -13 -85 -48 -135 -77
-200 -117 -343 -200 -395 -229 -80 -45 -83 -47 -118 -91 -59 -75 -60 -89 -58
-830 1 -368 5 -681 10 -695 18 -57 37 -88 81 -129 25 -24 51 -44 58 -45 7 -1
28 -11 47 -23 36 -21 323 -188 382 -221 18 -11 57 -33 86 -51 29 -17 57 -31
62 -31 6 0 10 -4 10 -9 0 -5 11 -12 25 -15 14 -4 25 -11 25 -16 0 -6 5 -10 10
-10 9 0 58 -27 130 -70 100 -60 261 -150 269 -150 5 0 14 -7 19 -16 5 -9 12
-16 15 -15 4 0 24 -7 44 -16 21 -9 45 -18 53 -20 37 -7 117 -4 142 6 23 9 375
209 738 421 63 36 195 113 292 169 117 67 189 116 211 141 65 76 64 61 63 830
-1 688 -1 695 -23 742 -21 47 -98 128 -120 128 -7 0 -13 5 -13 11 0 5 -4 7
-10 4 -5 -3 -10 -1 -10 4 0 6 -3 10 -7 9 -10 -3 -157 83 -161 94 -2 5 -8 6
-13 2 -5 -3 -9 0 -9 6 0 6 -4 8 -10 5 -5 -3 -10 -3 -10 2 0 4 -21 19 -47 33
-27 13 -51 29 -55 35 -4 5 -8 6 -8 2 0 -4 -16 4 -35 19 -19 14 -35 23 -35 19
0 -5 -8 -1 -17 7 -10 8 -38 26 -63 39 -25 13 -47 27 -50 30 -3 4 -15 9 -27 13
-13 4 -23 12 -23 17 0 6 -4 7 -10 4 -5 -3 -10 -1 -10 4 0 6 -6 11 -14 11 -7 0
-19 7 -26 15 -7 9 -15 13 -18 11 -2 -3 -16 4 -30 14 -13 11 -31 20 -38 20 -8
0 -14 4 -14 9 0 5 -12 14 -27 20 -16 6 -37 16 -48 23 -26 17 -89 55 -131 79
-19 10 -51 29 -71 40 -138 79 -212 92 -298 54z m150 -229 c22 -11 42 -22 45
-25 5 -6 81 -48 117 -65 13 -6 23 -15 23 -19 0 -5 5 -5 10 -2 6 3 10 2 10 -3
0 -8 50 -36 59 -32 2 1 7 -2 10 -7 3 -5 26 -20 51 -34 25 -13 48 -28 52 -34 4
-5 8 -6 8 -2 0 5 7 1 16 -7 8 -9 22 -16 30 -16 8 0 14 -4 14 -9 0 -5 16 -15
35 -22 19 -7 35 -17 35 -21 0 -4 4 -8 10 -8 5 0 39 -18 75 -40 36 -22 69 -40
74 -40 5 0 14 -7 21 -15 7 -8 16 -12 21 -9 5 3 9 2 9 -3 0 -4 21 -19 48 -33
26 -13 49 -27 52 -31 5 -6 27 -18 100 -55 19 -10 37 -20 40 -24 3 -3 30 -18
60 -34 30 -17 61 -36 69 -44 12 -11 14 -116 13 -645 0 -348 -1 -647 -1 -665
-2 -62 -49 -94 -581 -400 -566 -326 -556 -322 -641 -271 -28 16 -51 29 -53 29
-2 0 -33 17 -67 39 -143 86 -660 381 -669 381 -6 0 -10 4 -10 8 0 8 -64 42
-76 41 -4 0 -10 4 -13 9 -3 5 -52 36 -108 68 l-103 58 -1 56 c0 30 0 328 0
663 0 659 -2 637 54 678 12 9 184 110 382 224 198 115 374 216 390 226 70 41
261 147 275 152 28 10 75 3 115 -17z"/>
<path d="M1293 2470 c-102 -22 -172 -84 -199 -178 -15 -51 -17 -129 -17 -712
0 -586 2 -661 17 -713 21 -72 69 -127 139 -158 50 -23 61 -24 282 -24 284 1
524 11 539 24 13 11 16 317 3 339 -6 9 -67 12 -251 12 -175 0 -245 3 -254 12
-16 16 -17 969 -2 999 10 18 24 19 255 19 184 0 246 3 252 13 12 19 11 326 -2
343 -12 16 -94 21 -460 28 -143 3 -279 1 -302 -4z"/>
</g>
</svg>
